<svg xmlns="http://www.w3.org/2000/svg" version="1.1" xmlns:xlink="http://www.w3.org/1999/xlink" width="1000" height="1000"><g clip-path="url(#SvgjsClipPath1178)"><rect width="1000" height="1000" fill="#ffffff"></rect><g transform="matrix(5.555555555555555,0,0,5.555555555555555,0,0)"><svg xmlns="http://www.w3.org/2000/svg" version="1.1" xmlns:xlink="http://www.w3.org/1999/xlink" width="180" height="180"><svg version="1.1" xmlns="http://www.w3.org/2000/svg" xmlns:xlink="http://www.w3.org/1999/xlink" x="0" y="0" width="180" height="180" viewBox="0, 0, 180, 180">
  <g id="Layer_2">
    <path d="M-12.187,-8.813 L192.188,-8.813 L192.188,188.812 L-12.187,188.812 L-12.187,-8.813 z" fill="#FFFFFF"></path>
    <g id="download">
      <path d="M174.563,90 C174.563,136.703 136.703,174.563 90,174.563 C43.297,174.563 5.437,136.703 5.437,90 C5.437,43.297 43.297,5.437 90,5.437 C136.703,5.437 174.563,43.297 174.563,90 z" fill="#EEF2FF"></path>
      <path d="M149.194,90 C149.194,122.692 122.692,149.194 90,149.194 C57.308,149.194 30.806,122.692 30.806,90 C30.806,57.308 57.308,30.806 90,30.806 C122.692,30.806 149.194,57.308 149.194,90 z" fill-opacity="0" stroke="#C4E5FB" stroke-width="10.5"></path>
      <path d="M96.342,30.991 C123.379,34.048 144.849,55.143 148.383,82.121 C151.917,109.1 136.605,135.013 111.268,144.931 C85.932,154.849 57.097,146.218 41.377,124.01" fill-opacity="0" stroke="#2663EB" stroke-width="10.5" stroke-linecap="round"></path>
      <path d="M128.899,90 C128.899,111.483 111.483,128.899 90,128.899 C68.517,128.899 51.101,111.483 51.101,90 C51.101,68.517 68.517,51.101 90,51.101 C111.483,51.101 128.899,68.517 128.899,90 z" fill="#F8FAFC"></path>
    </g>
    <path d="M78.318,103.77 C84.159,103.77 88.242,100.035 88.242,94.597 L88.242,94.56 C88.242,89.543 84.617,85.899 79.581,85.899 C76.926,85.899 74.747,86.943 73.594,88.719 L73.502,88.719 L74.235,80.754 L86.686,80.754 L86.686,76.89 L70.463,76.89 L69.199,92.253 L73.319,92.253 C73.63,91.667 74.07,91.154 74.564,90.751 C75.571,89.909 76.871,89.451 78.373,89.451 C81.467,89.451 83.683,91.612 83.683,94.633 L83.683,94.67 C83.683,97.764 81.504,99.925 78.355,99.925 C75.571,99.925 73.557,98.222 73.173,96.007 L73.154,95.878 L68.723,95.878 L68.741,96.116 C69.089,100.493 72.825,103.77 78.318,103.77 z" fill="#333333"></path>
    <path d="M101.444,103.77 C107.908,103.77 111.826,98.515 111.826,90.111 L111.826,90.074 C111.826,81.669 107.908,76.433 101.444,76.433 C94.962,76.433 91.062,81.669 91.062,90.074 L91.062,90.111 C91.062,98.515 94.962,103.77 101.444,103.77 z M101.444,99.907 C97.874,99.907 95.823,96.208 95.823,90.111 L95.823,90.074 C95.823,83.977 97.874,80.314 101.444,80.314 C104.996,80.314 107.065,83.977 107.065,90.074 L107.065,90.111 C107.065,96.208 104.996,99.907 101.444,99.907 z" fill="#333333"></path>
  </g>
</svg></svg></g></g><defs><clipPath id="SvgjsClipPath1178"><rect width="1000" height="1000" x="0" y="0" rx="150" ry="150"></rect></clipPath></defs></svg>