<?xml version="1.0" encoding="UTF-8"?>
<!DOCTYPE svg PUBLIC "-//W3C//DTD SVG 1.1//EN" "http://www.w3.org/Graphics/SVG/1.1/DTD/svg11.dtd">
<svg version="1.1" xmlns="http://www.w3.org/2000/svg" xmlns:xlink="http://www.w3.org/1999/xlink" x="0" y="0" width="32" height="32" viewBox="0, 0, 32, 32">
  <g id="Layer_1">
    <text transform="matrix(1, 0, 0, 1, 3.264, 3.616)"/>
    <path d="M-0.64,-0.512 L32.64,-0.512 L32.64,32.512 L-0.64,32.512 L-0.64,-0.512 z" fill="#2563EB"/>
    <path d="M4.925,20.014 Q5.15,21.939 6.713,22.676 Q7.513,23.051 8.563,23.051 Q10.563,23.051 11.525,21.776 Q12.488,20.501 12.488,18.951 Q12.488,17.076 11.344,16.051 Q10.2,15.026 8.6,15.026 Q7.438,15.026 6.606,15.476 Q5.775,15.926 5.188,16.726 L3.238,16.614 L4.6,6.976 L13.9,6.976 L13.9,9.151 L6.288,9.151 L5.525,14.126 Q6.15,13.651 6.713,13.414 Q7.713,13.001 9.025,13.001 Q11.488,13.001 13.2,14.589 Q14.913,16.176 14.913,18.614 Q14.913,21.151 13.344,23.089 Q11.775,25.026 8.338,25.026 Q6.15,25.026 4.469,23.795 Q2.788,22.564 2.588,20.014 z" fill="#FFFFFF"/>
    <path d="M23.053,6.806 Q26.528,6.806 28.078,9.669 Q29.278,11.881 29.278,15.731 Q29.278,19.381 28.191,21.769 Q26.616,25.194 23.041,25.194 Q19.816,25.194 18.241,22.394 Q16.928,20.056 16.928,16.119 Q16.928,13.069 17.716,10.881 Q19.191,6.806 23.053,6.806 z M23.028,23.144 Q24.778,23.144 25.816,21.594 Q26.853,20.044 26.853,15.819 Q26.853,12.769 26.103,10.8 Q25.353,8.831 23.191,8.831 Q21.203,8.831 20.284,10.7 Q19.366,12.569 19.366,16.206 Q19.366,18.944 19.953,20.606 Q20.853,23.144 23.028,23.144 z" fill="#FFFFFF"/>
  </g>
</svg>
